<svg preserveAspectRatio="none" width="100%" height="100%" overflow="visible" style="display: block;" viewBox="0 0 16 16" fill="none" xmlns="http://www.w3.org/2000/svg">
<g id="Icon">
<path id="Vector" d="M8 6.66667H8.00667" stroke="var(--stroke-0, #6B6B6B)" stroke-width="1.33333" stroke-linecap="round" stroke-linejoin="round"/>
<path id="Vector_2" d="M8 9.33333H8.00667" stroke="var(--stroke-0, #6B6B6B)" stroke-width="1.33333" stroke-linecap="round" stroke-linejoin="round"/>
<path id="Vector_3" d="M8 4H8.00667" stroke="var(--stroke-0, #6B6B6B)" stroke-width="1.33333" stroke-linecap="round" stroke-linejoin="round"/>
<path id="Vector_4" d="M10.666 6.66669H10.6727" stroke="var(--stroke-0, #6B6B6B)" stroke-width="1.33333" stroke-linecap="round" stroke-linejoin="round"/>
<path id="Vector_5" d="M10.666 9.33331H10.6727" stroke="var(--stroke-0, #6B6B6B)" stroke-width="1.33333" stroke-linecap="round" stroke-linejoin="round"/>
<path id="Vector_6" d="M10.666 4H10.6727" stroke="var(--stroke-0, #6B6B6B)" stroke-width="1.33333" stroke-linecap="round" stroke-linejoin="round"/>
<path id="Vector_7" d="M5.33398 6.66669H5.34065" stroke="var(--stroke-0, #6B6B6B)" stroke-width="1.33333" stroke-linecap="round" stroke-linejoin="round"/>
<path id="Vector_8" d="M5.33398 9.33331H5.34065" stroke="var(--stroke-0, #6B6B6B)" stroke-width="1.33333" stroke-linecap="round" stroke-linejoin="round"/>
<path id="Vector_9" d="M5.33398 4H5.34065" stroke="var(--stroke-0, #6B6B6B)" stroke-width="1.33333" stroke-linecap="round" stroke-linejoin="round"/>
<path id="Vector_10" d="M6 14.6667V12.6667C6 12.4899 6.07024 12.3203 6.19526 12.1953C6.32029 12.0702 6.48986 12 6.66667 12H9.33333C9.51014 12 9.67971 12.0702 9.80474 12.1953C9.92976 12.3203 10 12.4899 10 12.6667V14.6667" stroke="var(--stroke-0, #6B6B6B)" stroke-width="1.33333" stroke-linecap="round" stroke-linejoin="round"/>
<path id="Vector_11" d="M11.9993 1.33331H3.99935C3.26297 1.33331 2.66602 1.93027 2.66602 2.66665V13.3333C2.66602 14.0697 3.26297 14.6666 3.99935 14.6666H11.9993C12.7357 14.6666 13.3327 14.0697 13.3327 13.3333V2.66665C13.3327 1.93027 12.7357 1.33331 11.9993 1.33331Z" stroke="var(--stroke-0, #6B6B6B)" stroke-width="1.33333" stroke-linecap="round" stroke-linejoin="round"/>
</g>
</svg>
