<svg preserveAspectRatio="none" width="100%" height="100%" overflow="visible" style="display: block;" viewBox="0 0 20 20" fill="none" xmlns="http://www.w3.org/2000/svg">
<g id="Icon" clip-path="url(#clip0_0_32)">
<path id="Vector" d="M13.3325 1.66666L11.4158 3.58332C10.9577 4.05065 10.7012 4.67894 10.7012 5.33332C10.7012 5.9877 10.9577 6.616 11.4158 7.08332L12.9158 8.58332C13.3831 9.04139 14.0114 9.29797 14.6658 9.29797C15.3202 9.29797 15.9485 9.04139 16.4158 8.58332L18.3325 6.66666" stroke="var(--stroke-0, #F26622)" stroke-width="2" stroke-linecap="round" stroke-linejoin="round"/>
<path id="Vector_2" d="M12.4997 12.5L2.74973 2.75C2.41713 3.07588 2.1529 3.46485 1.97252 3.89413C1.79213 4.3234 1.69922 4.78436 1.69922 5.25C1.69922 5.71564 1.79213 6.1766 1.97252 6.60587C2.1529 7.03515 2.41713 7.42412 2.74973 7.75L8.83306 13.8333C9.4164 14.4167 10.4997 14.4167 11.1664 13.8333L12.4997 12.5ZM12.4997 12.5L18.3331 18.3333" stroke="var(--stroke-0, #F26622)" stroke-width="2" stroke-linecap="round" stroke-linejoin="round"/>
<path id="Vector_3" d="M1.75001 18.1667L7.08334 12.9167" stroke="var(--stroke-0, #F26622)" stroke-width="2" stroke-linecap="round" stroke-linejoin="round"/>
<path id="Vector_4" d="M15.8333 4.16667L10 10" stroke="var(--stroke-0, #F26622)" stroke-width="2" stroke-linecap="round" stroke-linejoin="round"/>
</g>
<defs>
<clipPath id="clip0_0_32">
<rect width="20" height="20" fill="white"/>
</clipPath>
</defs>
</svg>
