<svg preserveAspectRatio="none" width="100%" height="100%" overflow="visible" style="display: block;" viewBox="0 0 149.84 39.8406" fill="none" xmlns="http://www.w3.org/2000/svg">
<g id="Group">
<path id="Vector" fill-rule="evenodd" clip-rule="evenodd" d="M85.9178 11.8219C90.2641 11.8219 92.5197 14.4061 92.1347 18.3651H78.6006C79.2609 14.1312 81.7916 11.8219 85.9178 11.8219ZM23.1673 21.341V18.2145C20.8002 17.5343 16.367 16.7075 15.1214 19.7723C14.4774 21.3568 15.0579 23.2962 16.7901 23.7835C18.6972 24.3201 21.5562 23.5153 23.1673 21.341ZM19.5307 1.50849C24.9612 1.50849 29.5219 3.21247 33.213 6.61213C36.9128 10.0116 38.7629 14.2717 38.7629 19.3751C38.7629 25.151 36.0997 30.0297 29.7692 30.0297C26.9125 30.0297 25.2211 28.9544 23.1673 26.4707C18.8774 32.5426 9.31964 30.2199 9.47803 21.0689C9.51565 18.8956 10.2663 16.7796 11.8735 15.1363C14.8475 12.096 19.6909 12.2705 23.1673 13.2081V11.7413H28.7717V22.9791C28.7717 23.7823 29.2997 24.3765 30.1189 24.3765C30.8091 24.3765 31.3887 23.9163 31.8578 23.0046C32.3349 22.0845 32.5653 20.8404 32.5653 19.273C32.5653 15.8905 31.312 13.053 28.8057 10.7699C26.2995 8.48653 23.2048 7.34496 19.5307 7.34496C15.6605 7.34496 12.4633 8.60582 9.93151 11.1362C7.40798 13.6583 6.14662 16.8447 6.14662 20.696C6.14662 24.5468 7.44236 27.7165 10.0337 30.2128C12.6339 32.7092 16.0609 33.9528 20.3321 33.9528C23.7335 33.9528 26.9984 33.3058 30.1269 32.0018V37.7954C27.2885 39.1588 24.0575 39.8406 20.4342 39.8406C14.407 39.8406 9.48834 38.0343 5.69475 34.4129C1.90094 30.7922 0 26.2339 0 20.7468C0 15.26 1.85847 10.6846 5.5669 7.01241C9.26646 3.34892 13.9298 1.50849 19.5307 1.50849ZM55.3006 6.54321C62.0328 6.54321 67.5406 12.0483 67.5406 18.7761V34.806H61.5408V18.9124C61.5408 15.5576 58.7943 12.8117 55.4369 12.8117C52.0796 12.8117 49.3328 15.558 49.3328 18.9124V34.806H43.0607V18.7761C43.0607 12.0479 48.5688 6.54321 55.3006 6.54321ZM149.84 12.7567V7.31301H141.973V0H135.701V7.31301H130.474V12.7567H135.701V26.1733C135.701 29.1422 136.141 35.5759 144.338 35.5759C146.319 35.5759 148.025 35.1908 149.235 34.5863V29.0874C148.08 29.6924 146.979 30.0773 145.549 30.0773C142.523 30.0773 141.973 28.3727 141.973 26.1183V12.7567H149.84ZM115.022 35.5759C122.174 35.5759 127.181 32.3317 127.181 26.7873C127.181 16.3581 109.41 20.592 109.41 15.0293C109.41 13.0409 111.501 11.602 114.692 11.602C118.488 11.602 120.964 13.7558 120.193 16.908H126.3C127.456 10.6672 122.119 6.54321 114.746 6.54321C108.09 6.54321 102.973 9.89759 102.973 15.4144C102.973 25.6875 120.689 21.747 120.689 27.2271C120.689 29.2066 118.433 30.5169 115.077 30.5169C110.785 30.5169 108.255 28.3821 108.64 24.9727H102.588C102.148 31.6169 107.264 35.5759 115.022 35.5759ZM92.4098 26.1183C91.4746 28.6476 89.0536 30.0773 85.9727 30.0773C81.5716 30.0773 79.0407 27.3829 78.4905 22.8191H98.0766C100.717 13.8014 95.7109 6.54321 86.028 6.54321C77.3351 6.54321 71.8334 12.3168 71.8334 21.0598C71.8334 29.8024 77.2802 35.5759 85.8628 35.5759C92.7401 35.5759 97.6367 31.8918 99.232 26.1183H92.4098Z" fill="var(--fill-0, #F26622)"/>
</g>
</svg>
