<svg width="50" height="50" viewBox="0 0 50 50" fill="none" xmlns="http://www.w3.org/2000/svg">
<path d="M12.5 45.8337V8.33366C12.5 7.22859 12.939 6.16878 13.7204 5.38738C14.5018 4.60598 15.5616 4.16699 16.6667 4.16699H33.3333C34.4384 4.16699 35.4982 4.60598 36.2796 5.38738C37.061 6.16878 37.5 7.22859 37.5 8.33366V45.8337H12.5Z" stroke="#F26622" stroke-width="3" stroke-linecap="round" stroke-linejoin="round"/>
<path d="M12.4993 25H8.33268C7.22761 25 6.16781 25.439 5.3864 26.2204C4.605 27.0018 4.16602 28.0616 4.16602 29.1667V41.6667C4.16602 42.7717 4.605 43.8315 5.3864 44.6129C6.16781 45.3943 7.22761 45.8333 8.33268 45.8333H12.4993" stroke="#F26622" stroke-width="3" stroke-linecap="round" stroke-linejoin="round"/>
<path d="M37.5 18.75H41.6667C42.7717 18.75 43.8315 19.189 44.6129 19.9704C45.3943 20.7518 45.8333 21.8116 45.8333 22.9167V41.6667C45.8333 42.7717 45.3943 43.8315 44.6129 44.6129C43.8315 45.3943 42.7717 45.8333 41.6667 45.8333H37.5" stroke="#F26622" stroke-width="3" stroke-linecap="round" stroke-linejoin="round"/>
<path d="M20.834 12.5H29.1673" stroke="#F26622" stroke-width="3" stroke-linecap="round" stroke-linejoin="round"/>
<path d="M20.834 20.834H29.1673" stroke="#F26622" stroke-width="3" stroke-linecap="round" stroke-linejoin="round"/>
<path d="M20.834 29.166H29.1673" stroke="#F26622" stroke-width="3" stroke-linecap="round" stroke-linejoin="round"/>
<path d="M20.834 37.5H29.1673" stroke="#F26622" stroke-width="3" stroke-linecap="round" stroke-linejoin="round"/>
</svg>
