<svg width="50" height="50" viewBox="0 0 50 50" fill="none" xmlns="http://www.w3.org/2000/svg">
<path d="M25 20.833H25.0208" stroke="#F26622" stroke-width="3" stroke-linecap="round" stroke-linejoin="round"/>
<path d="M25 29.167H25.0208" stroke="#F26622" stroke-width="3" stroke-linecap="round" stroke-linejoin="round"/>
<path d="M25 12.5H25.0208" stroke="#F26622" stroke-width="3" stroke-linecap="round" stroke-linejoin="round"/>
<path d="M33.334 20.834H33.3548" stroke="#F26622" stroke-width="3" stroke-linecap="round" stroke-linejoin="round"/>
<path d="M33.334 29.166H33.3548" stroke="#F26622" stroke-width="3" stroke-linecap="round" stroke-linejoin="round"/>
<path d="M33.334 12.5H33.3548" stroke="#F26622" stroke-width="3" stroke-linecap="round" stroke-linejoin="round"/>
<path d="M16.666 20.834H16.6868" stroke="#F26622" stroke-width="3" stroke-linecap="round" stroke-linejoin="round"/>
<path d="M16.666 29.166H16.6868" stroke="#F26622" stroke-width="3" stroke-linecap="round" stroke-linejoin="round"/>
<path d="M16.666 12.5H16.6868" stroke="#F26622" stroke-width="3" stroke-linecap="round" stroke-linejoin="round"/>
<path d="M18.75 45.8333V39.5833C18.75 39.0308 18.9695 38.5009 19.3602 38.1102C19.7509 37.7195 20.2808 37.5 20.8333 37.5H29.1667C29.7192 37.5 30.2491 37.7195 30.6398 38.1102C31.0305 38.5009 31.25 39.0308 31.25 39.5833V45.8333" stroke="#F26622" stroke-width="3" stroke-linecap="round" stroke-linejoin="round"/>
<path d="M37.5007 4.16602H12.5007C10.1995 4.16602 8.33398 6.0315 8.33398 8.33268V41.666C8.33398 43.9672 10.1995 45.8327 12.5007 45.8327H37.5007C39.8018 45.8327 41.6673 43.9672 41.6673 41.666V8.33268C41.6673 6.0315 39.8018 4.16602 37.5007 4.16602Z" stroke="#F26622" stroke-width="3" stroke-linecap="round" stroke-linejoin="round"/>
</svg>
