<svg preserveAspectRatio="none" width="100%" height="100%" overflow="visible" style="display: block;" viewBox="0 0 80 80" fill="none" xmlns="http://www.w3.org/2000/svg">
<g id="Icon">
<path id="Vector" opacity="0.3" d="M28 32H52L56 44H24L28 32Z" fill="var(--fill-0, #F26622)"/>
<path id="Vector_2" d="M28 32H52L56 44H24L28 32Z" stroke="var(--stroke-0, #F26622)" stroke-width="0.6"/>
<path id="Vector_3" opacity="0.3" d="M41.1988 44H38.7988V68H41.1988V44Z" fill="var(--fill-0, #1A1A1A)"/>
<path id="Vector_4" opacity="0.2" d="M40 71.2C46.6274 71.2 52 69.7673 52 68C52 66.2327 46.6274 64.8 40 64.8C33.3726 64.8 28 66.2327 28 68C28 69.7673 33.3726 71.2 40 71.2Z" fill="var(--fill-0, #F26622)"/>
<path id="Vector_5" d="M40 70.3996C45.5228 70.3996 50 69.3251 50 67.9996C50 66.6741 45.5228 65.5996 40 65.5996C34.4772 65.5996 30 66.6741 30 67.9996C30 69.3251 34.4772 70.3996 40 70.3996Z" stroke="var(--stroke-0, #F26622)" stroke-width="0.4"/>
<path id="Vector_6" opacity="0.136167" d="M40 46C51.0457 46 60 42.4183 60 38C60 33.5817 51.0457 30 40 30C28.9543 30 20 33.5817 20 38C20 42.4183 28.9543 46 40 46Z" fill="var(--fill-0, #F26622)"/>
<path id="Vector_7" opacity="0.2" d="M18.0012 56.8001C20.6521 56.8001 22.8012 54.651 22.8012 52.0001C22.8012 49.3491 20.6521 47.2001 18.0012 47.2001C15.3502 47.2001 13.2012 49.3491 13.2012 52.0001C13.2012 54.651 15.3502 56.8001 18.0012 56.8001Z" fill="var(--fill-0, #F26622)"/>
<path id="Vector_8" opacity="0.2" d="M64.4 48H59.6C58.7163 48 58 48.7163 58 49.6V54.4C58 55.2837 58.7163 56 59.6 56H64.4C65.2837 56 66 55.2837 66 54.4V49.6C66 48.7163 65.2837 48 64.4 48Z" fill="var(--fill-0, #F26622)"/>
<path id="Vector_9" opacity="0.191334" d="M40 34L32 20" stroke="var(--stroke-0, #F26622)" stroke-width="0.4"/>
<path id="Vector_10" opacity="0.39495" d="M40 34L48 20" stroke="var(--stroke-0, #F26622)" stroke-width="0.4"/>
</g>
</svg>
