<svg preserveAspectRatio="none" width="100%" height="100%" overflow="visible" style="display: block;" viewBox="0 0 9.6 7.99961" fill="none" xmlns="http://www.w3.org/2000/svg">
<g id="Group">
<path id="Vector" opacity="0.4" d="M0.798828 6H8.79883L6.79883 0H2.79883L0.798828 6Z" fill="var(--fill-0, #F26622)"/>
<path id="Vector_2" opacity="0.3" d="M4.79961 7.19993C5.46235 7.19993 5.99961 6.66267 5.99961 5.99993C5.99961 5.33719 5.46235 4.79993 4.79961 4.79993C4.13687 4.79993 3.59961 5.33719 3.59961 5.99993C3.59961 6.66267 4.13687 7.19993 4.79961 7.19993Z" fill="var(--fill-0, #1A1A1A)"/>
<path id="Vector_3" opacity="0.2" d="M4.8 7.99961C7.45097 7.99961 9.6 7.46235 9.6 6.79961C9.6 6.13687 7.45097 5.59961 4.8 5.59961C2.14903 5.59961 0 6.13687 0 6.79961C0 7.46235 2.14903 7.99961 4.8 7.99961Z" fill="var(--fill-0, #F26622)"/>
</g>
</svg>
