<svg preserveAspectRatio="none" width="100%" height="100%" overflow="visible" style="display: block;" viewBox="0 0 80 80" fill="none" xmlns="http://www.w3.org/2000/svg">
<g id="Icon">
<path id="Vector" opacity="0.2" d="M40 62C53.2548 62 64 59.3137 64 56C64 52.6863 53.2548 50 40 50C26.7452 50 16 52.6863 16 56C16 59.3137 26.7452 62 40 62Z" fill="var(--fill-0, #F26622)"/>
<path id="Vector_2" d="M40 59.6C52.1503 59.6 62 57.451 62 54.8C62 52.149 52.1503 50 40 50C27.8497 50 18 52.149 18 54.8C18 57.451 27.8497 59.6 40 59.6Z" stroke="var(--stroke-0, #F26622)" stroke-width="0.4"/>
<g id="Group">
<path id="Vector_3" opacity="0.3" d="M18 54C18 36.6667 25.3333 28 40 28C54.6667 28 62 36.6667 62 54H18Z" fill="var(--fill-0, #F26622)"/>
<path id="Vector_4" d="M18 54C18 36.6667 25.3333 28 40 28C54.6667 28 62 36.6667 62 54" stroke="var(--stroke-0, #F26622)" stroke-width="0.6"/>
<path id="Vector_5" opacity="0.3" d="M40 32C42.2091 32 44 30.2091 44 28C44 25.7909 42.2091 24 40 24C37.7909 24 36 25.7909 36 28C36 30.2091 37.7909 32 40 32Z" fill="var(--fill-0, #1A1A1A)"/>
<path id="Vector_6" d="M39.9996 30.4C41.3251 30.4 42.3996 29.3255 42.3996 28C42.3996 26.6745 41.3251 25.6 39.9996 25.6C38.6741 25.6 37.5996 26.6745 37.5996 28C37.5996 29.3255 38.6741 30.4 39.9996 30.4Z" fill="var(--fill-0, white)" stroke="var(--stroke-0, #F26622)" stroke-width="0.4"/>
</g>
<path id="Vector_7" opacity="0.4" d="M34 54C36.2091 54 38 52.2091 38 50C38 47.7909 36.2091 46 34 46C31.7909 46 30 47.7909 30 50C30 52.2091 31.7909 54 34 54Z" fill="var(--fill-0, #F26622)"/>
<path id="Vector_8" opacity="0.4" d="M46 54C48.2091 54 50 52.2091 50 50C50 47.7909 48.2091 46 46 46C43.7909 46 42 47.7909 42 50C42 52.2091 43.7909 54 46 54Z" fill="var(--fill-0, #F26622)"/>
<path id="Vector_9" opacity="0.5" d="M40.0012 48.8001C42.6521 48.8001 44.8012 46.651 44.8012 44.0001C44.8012 41.3491 42.6521 39.2001 40.0012 39.2001C37.3502 39.2001 35.2012 41.3491 35.2012 44.0001C35.2012 46.651 37.3502 48.8001 40.0012 48.8001Z" fill="var(--fill-0, #F26622)"/>
<path id="Vector_10" opacity="0.4" d="M16 20V12M14 20V14M18 20V14" stroke="var(--stroke-0, #F26622)" stroke-width="0.4" stroke-linecap="round"/>
<path id="Vector_11" opacity="0.4" d="M63.9988 21.1999C65.7661 21.1999 67.1988 19.7672 67.1988 17.9999C67.1988 16.2326 65.7661 14.7999 63.9988 14.7999C62.2315 14.7999 60.7988 16.2326 60.7988 17.9999C60.7988 19.7672 62.2315 21.1999 63.9988 21.1999Z" stroke="var(--stroke-0, #F26622)" stroke-width="0.4"/>
<path id="Vector_12" opacity="0.3" d="M64.0004 19.6C64.884 19.6 65.6004 18.8837 65.6004 18C65.6004 17.1164 64.884 16.4 64.0004 16.4C63.1167 16.4 62.4004 17.1164 62.4004 18C62.4004 18.8837 63.1167 19.6 64.0004 19.6Z" fill="var(--fill-0, #F26622)"/>
<path id="Vector_13" opacity="0.0451429" d="M29.9996 38C29.4663 35.3333 29.4663 32.6667 29.9996 30" stroke="var(--stroke-0, #F26622)" stroke-width="0.4" stroke-linecap="round"/>
<path id="Vector_14" opacity="0.15495" d="M39.9996 36C39.4663 33.3333 39.4663 30.6667 39.9996 28" stroke="var(--stroke-0, #F26622)" stroke-width="0.4" stroke-linecap="round"/>
<path id="Vector_15" opacity="0.307581" d="M49.9996 38C49.4663 35.3333 49.4663 32.6667 49.9996 30" stroke="var(--stroke-0, #F26622)" stroke-width="0.4" stroke-linecap="round"/>
</g>
</svg>
