<svg preserveAspectRatio="none" width="100%" height="100%" overflow="visible" style="display: block;" viewBox="0 0 80 80" fill="none" xmlns="http://www.w3.org/2000/svg">
<g id="Icon">
<path id="Vector" opacity="0.3" d="M40 64C24 52 12 40 12 28C12 20 18 14 26 14C32 14 36 18 40 22C44 18 48 14 54 14C62 14 68 20 68 28C68 40 56 52 40 64Z" fill="var(--fill-0, #F26622)"/>
<path id="Vector_2" d="M40 64C24 52 12 40 12 28C12 20 18 14 26 14C32 14 36 18 40 22C44 18 48 14 54 14C62 14 68 20 68 28C68 40 56 52 40 64Z" stroke="var(--stroke-0, #F26622)" stroke-width="0.6"/>
<path id="Vector_3" opacity="0.4" d="M24 36L18 42L16 40L22 34L24 36Z" fill="var(--fill-0, #F26622)"/>
<path id="Vector_4" opacity="0.35" d="M22 38L16 44L14 42L20 36L22 38Z" fill="var(--fill-0, #F26622)"/>
<path id="Vector_5" opacity="0.4" d="M56 36L62 42L64 40L58 34L56 36Z" fill="var(--fill-0, #F26622)"/>
<path id="Vector_6" opacity="0.35" d="M58 38L64 44L66 42L60 36L58 38Z" fill="var(--fill-0, #F26622)"/>
<path id="Vector_7" opacity="0.513112" d="M39.9988 19.1999C40.6616 19.1999 41.1988 18.6627 41.1988 17.9999C41.1988 17.3372 40.6616 16.7999 39.9988 16.7999C39.3361 16.7999 38.7988 17.3372 38.7988 17.9999C38.7988 18.6627 39.3361 19.1999 39.9988 19.1999Z" fill="var(--fill-0, #F26622)"/>
<path id="Vector_8" opacity="0.988217" d="M34.0012 22.8001C34.443 22.8001 34.8012 22.4419 34.8012 22.0001C34.8012 21.5582 34.443 21.2001 34.0012 21.2001C33.5593 21.2001 33.2012 21.5582 33.2012 22.0001C33.2012 22.4419 33.5593 22.8001 34.0012 22.8001Z" fill="var(--fill-0, #F26622)"/>
<path id="Vector_9" opacity="0.786888" d="M46.0012 22.8001C46.443 22.8001 46.8012 22.4419 46.8012 22.0001C46.8012 21.5582 46.443 21.2001 46.0012 21.2001C45.5593 21.2001 45.2012 21.5582 45.2012 22.0001C45.2012 22.4419 45.5593 22.8001 46.0012 22.8001Z" fill="var(--fill-0, #F26622)"/>
</g>
</svg>
