<svg preserveAspectRatio="none" width="100%" height="100%" overflow="visible" style="display: block;" viewBox="0 0 80 80" fill="none" xmlns="http://www.w3.org/2000/svg">
<g id="Icon">
<path id="Vector" opacity="0.1" d="M51.2 16H28.8C26.149 16 24 18.149 24 20.8V67.2C24 69.851 26.149 72 28.8 72H51.2C53.851 72 56 69.851 56 67.2V20.8C56 18.149 53.851 16 51.2 16Z" fill="var(--fill-0, #F26622)"/>
<path id="Vector_2" d="M50 18H30C27.7909 18 26 19.7909 26 22V66C26 68.2091 27.7909 70 30 70H50C52.2091 70 54 68.2091 54 66V22C54 19.7909 52.2091 18 50 18Z" fill="var(--fill-0, white)" stroke="var(--stroke-0, #F26622)" stroke-width="0.6"/>
<path id="Vector_3" opacity="0.15" d="M49.5988 24H30.3988C29.5152 24 28.7988 24.7163 28.7988 25.6V60.4C28.7988 61.2837 29.5152 62 30.3988 62H49.5988C50.4825 62 51.1988 61.2837 51.1988 60.4V25.6C51.1988 24.7163 50.4825 24 49.5988 24Z" fill="var(--fill-0, #F26622)"/>
<path id="Vector_4" opacity="0.4" d="M37.6 28H33.6C32.7163 28 32 28.7163 32 29.6V33.6C32 34.4837 32.7163 35.2 33.6 35.2H37.6C38.4837 35.2 39.2 34.4837 39.2 33.6V29.6C39.2 28.7163 38.4837 28 37.6 28Z" fill="var(--fill-0, #F26622)"/>
<path id="Vector_5" opacity="0.3" d="M46.3988 28H42.3988C41.5152 28 40.7988 28.7163 40.7988 29.6V33.6C40.7988 34.4837 41.5152 35.2 42.3988 35.2H46.3988C47.2825 35.2 47.9988 34.4837 47.9988 33.6V29.6C47.9988 28.7163 47.2825 28 46.3988 28Z" fill="var(--fill-0, #F26622)"/>
<path id="Vector_6" opacity="0.3" d="M37.6 36.8H33.6C32.7163 36.8 32 37.5163 32 38.4V42.4C32 43.2837 32.7163 44 33.6 44H37.6C38.4837 44 39.2 43.2837 39.2 42.4V38.4C39.2 37.5163 38.4837 36.8 37.6 36.8Z" fill="var(--fill-0, #F26622)"/>
<path id="Vector_7" opacity="0.35" d="M46.3988 36.7999H42.3988C41.5152 36.7999 40.7988 37.5163 40.7988 38.3999V42.3999C40.7988 43.2836 41.5152 43.9999 42.3988 43.9999H46.3988C47.2825 43.9999 47.9988 43.2836 47.9988 42.3999V38.3999C47.9988 37.5163 47.2825 36.7999 46.3988 36.7999Z" fill="var(--fill-0, #F26622)"/>
<path id="Vector_8" opacity="0.2" d="M46.4 46H33.6C32.7163 46 32 46.7163 32 47.6C32 48.4837 32.7163 49.2 33.6 49.2H46.4C47.2837 49.2 48 48.4837 48 47.6C48 46.7163 47.2837 46 46.4 46Z" fill="var(--fill-0, #F26622)"/>
<path id="Vector_9" opacity="0.2" d="M44.4 51.2H33.6C32.7163 51.2 32 51.9163 32 52.8C32 53.6837 32.7163 54.4 33.6 54.4H44.4C45.2837 54.4 46 53.6837 46 52.8C46 51.9163 45.2837 51.2 44.4 51.2Z" fill="var(--fill-0, #F26622)"/>
<path id="Vector_10" opacity="0.2" d="M42.4 56.4004H33.6C32.7163 56.4004 32 57.1167 32 58.0004C32 58.884 32.7163 59.6004 33.6 59.6004H42.4C43.2837 59.6004 44 58.884 44 58.0004C44 57.1167 43.2837 56.4004 42.4 56.4004Z" fill="var(--fill-0, #F26622)"/>
<path id="Vector_11" d="M40 68C41.1046 68 42 67.1046 42 66C42 64.8954 41.1046 64 40 64C38.8954 64 38 64.8954 38 66C38 67.1046 38.8954 68 40 68Z" stroke="var(--stroke-0, #F26622)" stroke-width="0.4"/>
<path id="Vector_12" opacity="0.898401" d="M58 20C60.6667 20 62 21.3333 62 24" stroke="var(--stroke-0, #F26622)" stroke-width="0.4"/>
<path id="Vector_13" opacity="0.59306" d="M60 18C64 18 66 20 66 24" stroke="var(--stroke-0, #F26622)" stroke-width="0.4"/>
<path id="Vector_14" opacity="0.31687" d="M62 16C67.3333 16 70 18.6667 70 24" stroke="var(--stroke-0, #F26622)" stroke-width="0.4"/>
<path id="Vector_15" opacity="0.721778" d="M48.0004 23.6C48.884 23.6 49.6004 22.8837 49.6004 22C49.6004 21.1164 48.884 20.4 48.0004 20.4C47.1167 20.4 46.4004 21.1164 46.4004 22C46.4004 22.8837 47.1167 23.6 48.0004 23.6Z" fill="var(--fill-0, #F26622)"/>
<path id="Vector_16" opacity="0.402637" d="M35.9996 34.4C37.3251 34.4 38.3996 33.3255 38.3996 32C38.3996 30.6745 37.3251 29.6 35.9996 29.6C34.6741 29.6 33.5996 30.6745 33.5996 32C33.5996 33.3255 34.6741 34.4 35.9996 34.4Z" stroke="var(--stroke-0, #F26622)" stroke-width="0.4"/>
</g>
</svg>
