<svg preserveAspectRatio="none" width="100%" height="100%" overflow="visible" style="display: block;" viewBox="0 0 20 20" fill="none" xmlns="http://www.w3.org/2000/svg">
<g id="Icon">
<path id="Vector" d="M10.666 16.3334C10.8773 16.4918 11.1232 16.5978 11.3834 16.6426C11.6437 16.6874 11.9109 16.6696 12.163 16.5909C12.415 16.5122 12.6448 16.3746 12.8333 16.1897C13.0218 16.0047 13.1636 15.7776 13.2472 15.5271C13.3307 15.2766 13.3534 15.0098 13.3136 14.7487C13.2738 14.4876 13.1725 14.2398 13.0181 14.0255C12.8637 13.8113 12.6606 13.6368 12.4255 13.5165C12.1904 13.3961 11.9301 13.3334 11.666 13.3334H1.66602" stroke="var(--stroke-0, #F26622)" stroke-width="1.66667" stroke-linecap="round" stroke-linejoin="round"/>
<path id="Vector_2" d="M14.5827 6.66671C14.7958 6.38261 15.0779 6.1577 15.4024 6.01332C15.7268 5.86895 16.0828 5.8099 16.4364 5.84179C16.7901 5.87368 17.1298 5.99545 17.4232 6.19554C17.7166 6.39563 17.9539 6.66739 18.1127 6.98501C18.2716 7.30264 18.3465 7.65559 18.3306 8.01035C18.3146 8.36511 18.2082 8.7099 18.0215 9.01198C17.8348 9.31406 17.574 9.56341 17.2639 9.73634C16.9537 9.90927 16.6045 10 16.2493 10H1.66602" stroke="var(--stroke-0, #F26622)" stroke-width="1.66667" stroke-linecap="round" stroke-linejoin="round"/>
<path id="Vector_3" d="M8.16602 3.66671C8.37729 3.50826 8.62318 3.40228 8.88345 3.3575C9.14371 3.31273 9.41089 3.33044 9.66296 3.40918C9.91504 3.48793 10.1448 3.62544 10.3333 3.8104C10.5218 3.99536 10.6636 4.22246 10.7472 4.47299C10.8307 4.72353 10.8534 4.99032 10.8136 5.25139C10.7738 5.51245 10.6725 5.76032 10.5181 5.97456C10.3637 6.1888 10.1606 6.36327 9.92548 6.48361C9.69041 6.60395 9.4301 6.66671 9.16602 6.66671H1.66602" stroke="var(--stroke-0, #F26622)" stroke-width="1.66667" stroke-linecap="round" stroke-linejoin="round"/>
</g>
</svg>
