<svg preserveAspectRatio="none" width="100%" height="100%" overflow="visible" style="display: block;" viewBox="0 0 20 20" fill="none" xmlns="http://www.w3.org/2000/svg">
<g id="Icon">
<path id="Vector" d="M1.66602 7.91668C1.66603 6.98935 1.94734 6.08383 2.47279 5.31973C2.99824 4.55563 3.74311 3.96889 4.60902 3.63701C5.47493 3.30513 6.42115 3.24372 7.32269 3.46088C8.22424 3.67805 9.0387 4.16358 9.65852 4.85335C9.70217 4.90002 9.75495 4.93724 9.81358 4.96268C9.87221 4.98812 9.93544 5.00125 9.99935 5.00125C10.0633 5.00125 10.1265 4.98812 10.1851 4.96268C10.2437 4.93724 10.2965 4.90002 10.3402 4.85335C10.958 4.1591 11.7727 3.66949 12.6757 3.44968C13.5787 3.22988 14.5273 3.2903 15.3951 3.62292C16.2629 3.95553 17.0088 4.54456 17.5336 5.3116C18.0584 6.07864 18.3371 6.98731 18.3327 7.91668C18.3327 9.82501 17.0827 11.25 15.8327 12.5L11.256 16.9275C11.1007 17.1059 10.9093 17.2491 10.6944 17.3478C10.4795 17.4464 10.2461 17.4982 10.0096 17.4997C9.77313 17.5012 9.53906 17.4524 9.32292 17.3565C9.10679 17.2605 8.91354 17.1197 8.75602 16.9433L4.16602 12.5C2.91602 11.25 1.66602 9.83335 1.66602 7.91668Z" stroke="var(--stroke-0, #1A1A1A)" stroke-width="1.66667" stroke-linecap="round" stroke-linejoin="round"/>
</g>
</svg>
