<svg preserveAspectRatio="none" width="100%" height="100%" overflow="visible" style="display: block;" viewBox="0 0 16 16" fill="none" xmlns="http://www.w3.org/2000/svg">
<g id="Icon">
<path id="Vector" d="M7.68335 1.53001C7.71257 1.47098 7.7577 1.4213 7.81365 1.38656C7.86961 1.35182 7.93416 1.33341 8.00002 1.33341C8.06588 1.33341 8.13043 1.35182 8.18638 1.38656C8.24234 1.4213 8.28747 1.47098 8.31669 1.53001L9.85669 4.64934C9.95814 4.85466 10.1079 5.03228 10.2931 5.16698C10.4783 5.30168 10.6934 5.38942 10.92 5.42268L14.364 5.92668C14.4293 5.93613 14.4906 5.96366 14.541 6.00614C14.5914 6.04863 14.629 6.10438 14.6494 6.16708C14.6698 6.22979 14.6722 6.29695 14.6564 6.36097C14.6406 6.42499 14.6072 6.48331 14.56 6.52934L12.0694 8.95468C11.9051 9.11475 11.7822 9.31233 11.7112 9.53043C11.6403 9.74853 11.6234 9.9806 11.662 10.2067L12.25 13.6333C12.2615 13.6986 12.2545 13.7657 12.2297 13.8271C12.2049 13.8885 12.1633 13.9418 12.1097 13.9807C12.0561 14.0196 11.9927 14.0427 11.9266 14.0473C11.8605 14.0519 11.7945 14.0378 11.736 14.0067L8.65735 12.388C8.4545 12.2815 8.22881 12.2258 7.99969 12.2258C7.77057 12.2258 7.54487 12.2815 7.34202 12.388L4.26402 14.0067C4.20557 14.0376 4.13962 14.0515 4.07365 14.0468C4.00769 14.0422 3.94437 14.0191 3.89088 13.9802C3.8374 13.9413 3.79591 13.8881 3.77112 13.8268C3.74634 13.7655 3.73926 13.6985 3.75069 13.6333L4.33802 10.2073C4.37682 9.98117 4.36001 9.74894 4.28904 9.53071C4.21808 9.31247 4.09509 9.11478 3.93069 8.95468L1.44002 6.53001C1.39242 6.48403 1.35868 6.42561 1.34266 6.36139C1.32664 6.29718 1.32898 6.22976 1.34941 6.1668C1.36983 6.10385 1.40753 6.0479 1.4582 6.00533C1.50888 5.96276 1.57049 5.93528 1.63602 5.92601L5.07935 5.42268C5.30619 5.38968 5.52161 5.30205 5.70708 5.16734C5.89254 5.03262 6.04249 4.85486 6.14402 4.64934L7.68335 1.53001Z" fill="var(--fill-0, #F26622)" stroke="var(--stroke-0, #F26622)" stroke-width="1.33333" stroke-linecap="round" stroke-linejoin="round"/>
</g>
</svg>
