<svg preserveAspectRatio="none" width="100%" height="100%" overflow="visible" style="display: block;" viewBox="0 0 16 16" fill="none" xmlns="http://www.w3.org/2000/svg">
<g id="Icon">
<path id="Vector" d="M13.3327 6.66665C13.3327 9.99531 9.64002 13.462 8.40002 14.5326C8.2845 14.6195 8.14388 14.6665 7.99935 14.6665C7.85482 14.6665 7.7142 14.6195 7.59868 14.5326C6.35868 13.462 2.66602 9.99531 2.66602 6.66665C2.66602 5.25216 3.22792 3.8956 4.22811 2.89541C5.22831 1.89522 6.58486 1.33331 7.99935 1.33331C9.41384 1.33331 10.7704 1.89522 11.7706 2.89541C12.7708 3.8956 13.3327 5.25216 13.3327 6.66665Z" stroke="var(--stroke-0, #F26622)" stroke-width="1.33333" stroke-linecap="round" stroke-linejoin="round"/>
<path id="Vector_2" d="M8 8.66667C9.10457 8.66667 10 7.77124 10 6.66667C10 5.5621 9.10457 4.66667 8 4.66667C6.89543 4.66667 6 5.5621 6 6.66667C6 7.77124 6.89543 8.66667 8 8.66667Z" stroke="var(--stroke-0, #F26622)" stroke-width="1.33333" stroke-linecap="round" stroke-linejoin="round"/>
</g>
</svg>
