<svg preserveAspectRatio="none" width="100%" height="100%" overflow="visible" style="display: block;" viewBox="0 0 20 20" fill="none" xmlns="http://www.w3.org/2000/svg">
<g id="Icon">
<path id="Vector" d="M8.33268 3.33337L6.66602 5.00004" stroke="var(--stroke-0, #F26622)" stroke-width="1.66667" stroke-linecap="round" stroke-linejoin="round"/>
<path id="Vector_2" d="M14.166 15.8334V17.5" stroke="var(--stroke-0, #F26622)" stroke-width="1.66667" stroke-linecap="round" stroke-linejoin="round"/>
<path id="Vector_3" d="M1.66602 10H18.3327" stroke="var(--stroke-0, #F26622)" stroke-width="1.66667" stroke-linecap="round" stroke-linejoin="round"/>
<path id="Vector_4" d="M5.83398 15.8334V17.5" stroke="var(--stroke-0, #F26622)" stroke-width="1.66667" stroke-linecap="round" stroke-linejoin="round"/>
<path id="Vector_5" d="M7.50065 4.1667L6.35148 3.01754C6.1105 2.77543 5.80451 2.60834 5.47055 2.53649C5.13659 2.46464 4.78896 2.4911 4.46973 2.61268C4.15049 2.73425 3.87333 2.94573 3.67176 3.22153C3.4702 3.49733 3.35288 3.82562 3.33398 4.1667V14.1667C3.33398 14.6087 3.50958 15.0327 3.82214 15.3452C4.1347 15.6578 4.55862 15.8334 5.00065 15.8334H15.0007C15.4427 15.8334 15.8666 15.6578 16.1792 15.3452C16.4917 15.0327 16.6673 14.6087 16.6673 14.1667V10" stroke="var(--stroke-0, #F26622)" stroke-width="1.66667" stroke-linecap="round" stroke-linejoin="round"/>
</g>
</svg>
